<?xml version="1.0" encoding="UTF-8" standalone="no"?>
<svg
   xmlns:dc="http://purl.org/dc/elements/1.1/"
   xmlns:cc="http://creativecommons.org/ns#"
   xmlns:rdf="http://www.w3.org/1999/02/22-rdf-syntax-ns#"
   xmlns:svg="http://www.w3.org/2000/svg"
   xmlns="http://www.w3.org/2000/svg"
   height="79.5"
   width="122.57223"
   xml:space="preserve"
   viewBox="0 0 122.57223 79.500002"
   y="0px"
   x="0px"
   id="Layer_1"
   version="1.1"><metadata
   id="metadata975"><rdf:RDF><cc:Work
       rdf:about=""><dc:format>image/svg+xml</dc:format><dc:type
         rdf:resource="http://purl.org/dc/dcmitype/StillImage" /><dc:title></dc:title></cc:Work></rdf:RDF></metadata><defs
   id="defs973" />
<style
   id="style926"
   type="text/css">
	.st0{fill:#333333;}
</style>

<g
   transform="translate(-65.577253,-0.09999805)"
   id="layer2"><g
     id="g917"
     transform="matrix(0.86519783,0,0,0.86519783,63.366889,-2.1129617)"><path
       id="path915"
       d="M 92.71,44.408 52.591,4.291 c -2.31,-2.311 -6.057,-2.311 -8.369,0 l -8.33,8.332 10.567,10.567 c 2.456,-0.83 5.272,-0.273 7.229,1.685 1.969,1.97 2.521,4.81 1.67,7.275 l 10.186,10.185 c 2.465,-0.85 5.307,-0.3 7.275,1.671 2.75,2.75 2.75,7.206 0,9.958 -2.752,2.751 -7.208,2.751 -9.961,0 -2.068,-2.07 -2.58,-5.11 -1.531,-7.658 l -9.5,-9.499 v 24.997 c 0.67,0.332 1.303,0.774 1.861,1.332 2.75,2.75 2.75,7.206 0,9.959 -2.75,2.749 -7.209,2.749 -9.957,0 -2.75,-2.754 -2.75,-7.21 0,-9.959 0.68,-0.679 1.467,-1.193 2.307,-1.537 v -25.23 c -0.84,-0.344 -1.625,-0.853 -2.307,-1.537 -2.083,-2.082 -2.584,-5.14 -1.516,-7.698 L 31.798,16.715 4.288,44.222 c -2.311,2.313 -2.311,6.06 0,8.371 l 40.121,40.118 c 2.31,2.311 6.056,2.311 8.369,0 L 92.71,52.779 c 2.311,-2.311 2.311,-6.06 0,-8.371 z"
       style="fill:#f05133" /></g></g><g
   transform="translate(-65.577253,-0.09999805)"
   id="layer1"><g
     transform="translate(42)"
     style="fill:#333333"
     id="g1606"><g
       style="fill:#333333"
       id="g948"
       transform="translate(66.59948,0.04999847)">
					<path
   class="st0"
   d="M 42.5,30.8 C 42.5,23.1 37.3,20.4 30,20.4 H 26.2 V 41.8 H 31 c 7.1,0 11.5,-3.8 11.5,-11 z"
   id="path946"
   style="fill:#333333" />
				</g><g
       style="fill:#333333"
       id="g956"
       transform="translate(66.59948,0.04999847)">
					<path
   class="st0"
   d="m 39.2,64.1 -7,-10.7 h -6 v 7.6 7.3 0 0 l 9.6,9.6 c 2.2,2.2 5.8,2.2 8,0 l 2.7,-2.7 z"
   id="path954"
   style="fill:#333333" />
				</g><g
       style="fill:#333333"
       id="g960"
       transform="translate(66.59948,0.04999847)">
					<path
   class="st0"
   d="M 77.9,35.8 43.8,1.7 c -2.2,-2.2 -5.8,-2.2 -8,0 l -7.1,7.1 h 0.1 c 0.1,0 0.1,0 0.2,0 h 0.4 v 0 c 8.1,0 17.8,0.8 23.5,7.3 3.4,3.9 5.1,9.2 5.1,14.5 0,8.6 -3.7,15.8 -11.6,19.8 v 0.2 L 56.6,65 v 0 L 77.9,43.7 c 2.2,-2.1 2.2,-5.7 0,-7.9 z"
   id="path958"
   style="fill:#333333" />
				</g></g></g></svg>