<?xml version="1.0" encoding="UTF-8"?>
<svg width="122.57" height="79.5" version="1.1" viewBox="0 0 122.57 79.5" xml:space="preserve" xmlns="http://www.w3.org/2000/svg">
<style type="text/css">
	.st0{fill:#333;}
</style>
<g transform="translate(-65.577 -.099998)"><g transform="matrix(.8652 0 0 .8652 63.367 -2.113)"><path d="m92.71 44.408-40.119-40.117c-2.31-2.311-6.057-2.311-8.369 0l-8.33 8.332 10.567 10.567c2.456-0.83 5.272-0.273 7.229 1.685 1.969 1.97 2.521 4.81 1.67 7.275l10.186 10.185c2.465-0.85 5.307-0.3 7.275 1.671 2.75 2.75 2.75 7.206 0 9.958-2.752 2.751-7.208 2.751-9.961 0-2.068-2.07-2.58-5.11-1.531-7.658l-9.5-9.499v24.997c0.67 0.332 1.303 0.774 1.861 1.332 2.75 2.75 2.75 7.206 0 9.959-2.75 2.749-7.209 2.749-9.957 0-2.75-2.754-2.75-7.21 0-9.959 0.68-0.679 1.467-1.193 2.307-1.537v-25.23c-0.84-0.344-1.625-0.853-2.307-1.537-2.083-2.082-2.584-5.14-1.516-7.698l-10.417-10.419-27.51 27.507c-2.311 2.313-2.311 6.06 0 8.371l40.121 40.118c2.31 2.311 6.056 2.311 8.369 0l39.932-39.932c2.311-2.311 2.311-6.06 0-8.371z" fill="#f05133"/></g></g><g transform="translate(-65.577 -.099998)"><g transform="translate(42)"><g transform="translate(66.599 .049998)">
	<path class="st0" d="m42.5 30.8c0-7.7-5.2-10.4-12.5-10.4h-3.8v21.4h4.8c7.1 0 11.5-3.8 11.5-11z"/>
</g><g transform="translate(66.599 .049998)">
	<path class="st0" d="m39.2 64.1-7-10.7h-6v14.9l9.6 9.6c2.2 2.2 5.8 2.2 8 0l2.7-2.7z"/>
</g><g transform="translate(66.599 .049998)">
	<path class="st0" d="m77.9 35.8-34.1-34.1c-2.2-2.2-5.8-2.2-8 0l-7.1 7.1h0.1 0.2 0.4c8.1 0 17.8 0.8 23.5 7.3 3.4 3.9 5.1 9.2 5.1 14.5 0 8.6-3.7 15.8-11.6 19.8v0.2l10.2 14.4 21.3-21.3c2.2-2.1 2.2-5.7 0-7.9z"/>
</g></g></g></svg>
